<?xml version="1.0" encoding="UTF-8" standalone="no"?>
<!-- Created with Inkscape (http://www.inkscape.org/) -->

<svg
        xmlns="http://www.w3.org/2000/svg"
        width="86mm"
        height="30mm"
        viewBox="0 0 86 30"
        version="1.1"
        id="svg8"
>
    <defs
            id="defs2"/>
    <g
            id="layer1"
            transform="translate(0,-267)">
        <g
                id="g4526"
                transform="matrix(0.03527778,0,0,-0.03527778,-3.4773841,299.73579)"
                style="fill:#000000;stroke:none">
            <path
                    id="path4518"
                    d="M 485,769 C 403,741 323,702 278,666 c -21,-16 -23,-36 -5,-61 13,-17 16,-17 58,12 42,29 123,73 133,73 3,0 -15,-44 -41,-97 C 335,404 306,328 318,309 c 13,-21 3,-31 -51,-54 -49,-20 -56,-19 -63,10 -7,30 -24,23 -24,-10 0,-29 43,-65 80,-65 61,0 267,158 384,296 104,122 126,186 86,251 -42,70 -108,78 -245,32 z M 717,726 C 729,714 658,592 603,530 545,465 416,345 386,328 c -13,-7 -13,-2 3,34 34,77 170,360 175,366 19,18 134,17 153,-2 z"
                    style="fill:#ffffff;stroke:#ffffff"/>
            <path
                    id="path4520"
                    d="m 1743,770 c -33,-17 -90,-57 -126,-90 -78,-72 -112,-133 -104,-191 9,-67 28,-85 122,-115 47,-15 85,-33 85,-40 0,-32 -138,-114 -192,-114 -21,0 -28,5 -28,20 0,21 -15,27 -25,10 -19,-30 39,-80 92,-80 70,1 193,89 193,140 0,47 -33,76 -121,105 -44,15 -83,33 -86,41 -26,69 186,274 284,274 23,0 23,0 7,-32 -10,-18 -43,-59 -76,-90 -58,-58 -73,-93 -42,-105 19,-7 103,72 145,136 34,53 36,84 9,129 -25,41 -57,42 -137,2 z"
                    style="fill:#ffffff"/>
            <path
                    id="path4522"
                    d="m 1045,632 c -71,-26 -82,-26 -122,4 -21,15 -23,15 -34,-9 -11,-23 -15,-25 -63,-20 -56,6 -56,6 -118,-97 -26,-44 -58,-139 -58,-175 0,-30 20,-65 38,-65 4,0 27,29 51,65 24,36 45,65 46,65 1,0 0,-12 -3,-28 -4,-33 27,-67 55,-58 23,8 81,87 133,181 24,43 48,75 60,78 11,3 20,3 20,1 0,-2 -22,-36 -48,-76 C 901,347 885,309 912,282 c 19,-19 30,-15 88,28 64,48 82,50 97,10 6,-16 23,-35 37,-41 23,-11 29,-9 52,12 56,51 164,235 164,278 0,44 -19,25 -63,-62 -53,-105 -115,-190 -140,-195 -20,-4 -22,19 -6,83 11,42 12,43 36,32 23,-10 28,-8 48,17 13,16 33,50 46,77 18,41 21,56 13,87 -10,43 -43,55 -75,26 -32,-29 -83,-116 -105,-179 -17,-52 -24,-60 -47,-62 -15,-1 -41,-11 -57,-23 -17,-12 -30,-17 -30,-12 0,13 95,149 147,210 44,51 45,54 28,72 -21,24 -13,24 -100,-8 z M 921,483 C 894,440 859,393 845,380 l -26,-24 15,40 c 7,22 32,77 56,123 l 42,84 20,-20 20,-21 z m 329,93 c -23,-62 -62,-126 -75,-126 -13,0 -12,7 6,43 21,42 66,107 74,107 3,0 0,-11 -5,-24 z M 829,533 C 799,482 708,350 704,350 c -5,0 23,75 45,117 21,43 76,103 93,103 5,0 -1,-17 -13,-37 z"
                    style="fill:#ffffff;stroke:#ffffff"/>
            <path
                    id="path4524"
                    d="m 2039,626 c -11,-22 -16,-24 -63,-19 -56,6 -56,6 -118,-97 -26,-44 -58,-139 -58,-175 0,-30 20,-65 38,-65 4,0 27,29 51,65 24,36 45,65 46,65 1,0 0,-11 -3,-25 -5,-27 21,-65 44,-65 7,0 22,10 34,22 22,24 21,24 38,-15 6,-15 24,-33 38,-39 24,-11 29,-9 66,31 22,23 41,41 42,39 1,-2 7,-15 14,-31 6,-15 23,-32 37,-39 22,-10 29,-8 51,13 56,51 164,235 164,278 0,44 -19,25 -63,-62 -53,-105 -115,-190 -140,-195 -20,-4 -22,19 -6,83 11,42 12,43 36,32 23,-10 28,-8 48,17 13,16 33,50 46,77 18,41 21,56 13,87 -7,28 -15,38 -33,40 -36,5 -78,-42 -128,-143 -50,-103 -102,-179 -134,-196 -22,-11 -22,-10 -16,41 3,28 17,76 31,105 33,72 89,152 94,136 2,-7 -6,-26 -18,-43 -15,-21 -19,-33 -12,-40 17,-17 42,-1 58,38 19,47 4,91 -34,101 -34,8 -74,-38 -132,-151 -23,-46 -55,-97 -71,-112 l -30,-28 14,40 c 8,21 35,81 61,132 25,50 46,94 46,96 0,3 -9,10 -20,16 -17,9 -22,7 -31,-14 z m 321,-50 c -23,-62 -62,-126 -75,-126 -13,0 -12,7 6,43 21,42 66,107 74,107 3,0 0,-11 -5,-24 z m -381,-43 c -30,-51 -121,-183 -125,-183 -5,0 23,75 45,117 21,43 76,103 93,103 5,0 -1,-17 -13,-37 z"
                    style="fill:#ffffff"/>
        </g>
    </g>
</svg>
